<svg width="1080" height="1080" viewBox="0 0 1080 1080" fill="none" xmlns="http://www.w3.org/2000/svg">
<rect width="1080" height="1080" rx="200" ry="200" fill="white"/>
<path d="M962.925 227.851C913.141 224.537 863.249 228.528 814.676 239.754C761.826 251.942 711.4 272.397 664.823 300.622C667.852 307.999 671.736 316.266 676.832 324.997C682.57 334.833 688.521 343.137 694.045 349.908C713.004 338.433 738.413 324.962 769.667 313.202C784.028 307.785 803.664 301.228 827.327 295.775C853.271 289.788 890.012 283.801 934.915 284.264V511.058C933.311 535.077 929.534 558.491 923.832 581.156C856.585 565.974 794.042 568.255 737.308 588.069C681.715 607.491 646.969 638.638 619.03 663.655C588.952 690.597 571.668 704.923 544.798 704.923C544.121 704.923 543.408 704.923 542.695 704.923C542.446 704.923 542.161 704.923 541.911 704.923C541.662 704.923 541.377 704.923 541.127 704.923C540.414 704.923 539.702 704.923 539.025 704.923C512.155 704.923 494.871 690.561 464.793 663.655C436.889 638.638 402.108 607.527 346.514 588.069C288.676 567.899 224.743 565.903 156 582.118C150.155 559.168 146.306 535.433 144.667 511.093V284.3C189.569 283.837 226.311 289.859 252.255 295.811C275.918 301.263 295.589 307.82 309.915 313.237C341.204 324.997 366.578 338.468 385.537 349.943C391.06 343.172 397.047 334.869 402.785 325.033C407.845 316.302 411.765 308.034 414.795 300.657C368.182 272.469 317.791 251.977 264.906 239.79C216.333 228.564 166.441 224.573 116.656 227.887L90 229.669V484.259C90 500.438 90.8554 516.439 92.5303 532.191C116.55 757.701 307.92 933.997 539.702 933.997C771.484 933.997 962.89 757.737 986.873 532.191C988.548 516.439 989.404 500.438 989.404 484.259V229.669L962.747 227.887L962.925 227.851ZM670.988 857.876C629.934 872.345 585.887 880.185 539.916 880.185C531.648 880.185 523.487 879.936 515.326 879.401C424.416 873.842 341.668 837.385 277.486 780.437C259.596 764.615 243.167 747.152 228.378 728.336C206.604 700.611 188.429 669.856 174.566 636.892C230.516 624.49 281.905 626.308 327.769 642.344C372.529 657.953 400.041 682.614 426.626 706.455C457.345 733.967 489.097 762.405 539.239 762.405C540.201 762.405 541.127 762.405 542.125 762.334C543.087 762.334 544.049 762.405 545.012 762.405C595.153 762.405 626.87 733.967 657.624 706.455C684.209 682.614 711.721 657.953 756.481 642.344C801.277 626.664 851.311 624.561 905.764 636.037C862.714 739.277 777.186 820.565 671.131 857.876H670.988Z" fill="#1B485F"/>
<path d="M905.594 636.035C862.545 739.275 777.016 820.563 670.961 857.875C629.907 872.344 585.86 880.184 539.888 880.184C531.621 880.184 523.46 879.934 515.299 879.4C424.389 873.841 341.64 837.384 277.458 780.436C259.569 764.613 243.14 747.151 228.351 728.335C206.577 700.609 188.402 669.855 174.539 636.891C230.489 624.489 281.877 626.306 327.742 642.343C372.502 657.952 400.014 682.613 426.599 706.454C457.318 733.966 489.07 762.404 539.211 762.404C540.174 762.404 541.1 762.404 542.098 762.333C543.06 762.333 544.022 762.404 544.984 762.404C595.126 762.404 626.842 733.966 657.597 706.454C684.182 682.613 711.694 657.952 756.454 642.343C801.249 626.663 851.283 624.56 905.737 636.035H905.594Z" fill="#44AABF"/>
<path d="M445.499 457.324C454.801 473.147 463.995 490.502 472.619 509.283C472.869 509.853 473.154 510.459 473.439 511.029C503.302 576.779 515.526 636.471 520.836 679.307H531.099V430.276C509.574 426.178 493.288 407.219 493.288 384.518C493.288 358.788 514.172 337.905 539.902 337.905C565.631 337.905 586.515 358.788 586.515 384.518C586.515 407.219 570.228 426.178 548.704 430.276V679.307H558.967C564.241 636.471 576.501 576.779 606.4 511.029C606.614 510.459 606.935 509.853 607.184 509.283C615.808 490.467 624.967 473.147 634.268 457.324C651.481 428.102 669.192 403.869 684.979 384.554C665.593 355.474 643.747 317.449 625.038 270.801C606.115 223.653 595.602 180.71 589.579 146H490.259C484.201 180.71 473.688 223.653 454.801 270.801C436.091 317.449 414.281 355.474 394.859 384.554C410.647 403.869 428.358 428.102 445.535 457.324H445.499Z" fill="#1B485F"/>
</svg>
