<svg width="1200" height="1200" viewBox="0 0 1200 1200" fill="none" xmlns="http://www.w3.org/2000/svg">
<rect width="1200" height="1200" rx="200" fill="white"/>
<path d="M1065.86 276.202C1011.01 272.551 956.031 276.948 902.509 289.318C844.275 302.747 788.711 325.286 737.388 356.386C740.726 364.514 745.006 373.624 750.622 383.245C756.944 394.083 763.502 403.232 769.588 410.693C790.479 398.049 818.476 383.206 852.914 370.247C868.739 364.279 890.376 357.054 916.449 351.046C945.036 344.449 985.521 337.852 1035 338.362V588.259C1033.23 614.725 1029.07 640.524 1022.79 665.498C948.688 648.77 879.773 651.283 817.259 673.116C756.001 694.516 717.715 728.836 686.93 756.401C653.788 786.087 634.743 801.873 605.135 801.873C604.389 801.873 603.603 801.873 602.818 801.873C602.543 801.873 602.229 801.873 601.954 801.873C601.679 801.873 601.365 801.873 601.09 801.873C600.305 801.873 599.52 801.873 598.773 801.873C569.166 801.873 550.121 786.048 516.979 756.401C486.232 728.836 447.907 694.556 386.649 673.116C322.918 650.89 252.471 648.691 176.724 666.558C170.284 641.27 166.043 615.118 164.237 588.298V338.402C213.714 337.891 254.199 344.527 282.786 351.085C308.86 357.093 330.536 364.318 346.321 370.287C380.798 383.245 408.757 398.088 429.647 410.732C435.734 403.271 442.331 394.122 448.653 383.284C454.229 373.664 458.548 364.554 461.886 356.425C410.524 325.365 354.999 302.786 296.726 289.357C243.204 276.988 188.229 272.59 133.372 276.242L104 278.205V558.73C104 576.557 104.943 594.189 106.788 611.545C133.255 860.028 344.122 1054.28 599.52 1054.28C854.917 1054.28 1065.82 860.067 1092.25 611.545C1094.1 594.189 1095.04 576.557 1095.04 558.73V278.205L1065.67 276.242L1065.86 276.202ZM744.182 970.408C698.945 986.35 650.411 994.989 599.755 994.989C590.645 994.989 581.653 994.714 572.66 994.125C472.488 988 381.309 947.829 310.587 885.08C290.875 867.646 272.773 848.405 256.477 827.671C232.484 797.122 212.457 763.234 197.182 726.912C258.833 713.247 315.457 715.249 365.994 732.92C415.314 750.119 445.629 777.292 474.923 803.561C508.772 833.876 543.759 865.211 599.009 865.211C600.069 865.211 601.09 865.211 602.19 865.132C603.25 865.132 604.31 865.211 605.37 865.211C660.62 865.211 695.568 833.876 729.456 803.561C758.75 777.292 789.065 750.119 838.385 732.92C887.745 715.642 942.876 713.325 1002.88 725.969C955.442 839.727 861.2 929.295 744.339 970.408H744.182Z" fill="#1B485F"/>
<path d="M1002.69 725.956C955.259 839.713 861.016 929.282 744.156 970.394C698.919 986.337 650.385 994.976 599.729 994.976C590.619 994.976 581.627 994.701 572.634 994.112C472.462 987.986 381.283 947.816 310.561 885.067C290.849 867.632 272.747 848.391 256.451 827.658C232.458 797.108 212.431 763.221 197.156 726.898C258.807 713.233 315.431 715.236 365.968 732.906C415.288 750.105 445.603 777.278 474.897 803.548C508.746 833.862 543.733 865.198 598.983 865.198C600.043 865.198 601.064 865.198 602.164 865.119C603.224 865.119 604.284 865.198 605.344 865.198C660.594 865.198 695.542 833.862 729.43 803.548C758.724 777.278 789.039 750.105 838.359 732.906C887.719 715.629 942.85 713.312 1002.85 725.956H1002.69Z" fill="#44AABF"/>
<path d="M495.753 529.039C506.002 546.473 516.133 565.596 525.635 586.29C525.91 586.919 526.224 587.586 526.538 588.214C559.445 660.662 572.914 726.435 578.765 773.634H590.074V499.235C566.356 494.719 548.411 473.829 548.411 448.816C548.411 420.465 571.422 397.454 599.773 397.454C628.124 397.454 651.135 420.465 651.135 448.816C651.135 473.829 633.19 494.719 609.472 499.235V773.634H620.781C626.593 726.435 640.101 660.662 673.046 588.214C673.282 587.586 673.635 586.919 673.91 586.29C683.413 565.557 693.505 546.473 703.754 529.039C722.72 496.839 742.236 470.138 759.632 448.855C738.27 416.813 714.199 374.915 693.584 323.514C672.732 271.563 661.148 224.246 654.512 186H545.073C538.397 224.246 526.813 271.563 506.001 323.514C485.386 374.915 461.354 416.813 439.953 448.855C457.349 470.138 476.865 496.839 495.792 529.039H495.753Z" fill="#1B485F"/>
</svg>