<svg width="830" height="250" viewBox="0 0 830 250" fill="none" xmlns="http://www.w3.org/2000/svg">
<path d="M276.944 25.9674C261.149 24.9159 245.321 26.1822 229.91 29.7437C213.143 33.6104 197.145 40.1001 182.368 49.0546C183.329 51.395 184.562 54.018 186.178 56.788C187.999 59.9085 189.887 62.5428 191.639 64.691C197.654 61.0504 205.715 56.7767 215.631 53.0456C220.187 51.3271 226.417 49.2468 233.924 47.5169C242.155 45.6175 253.812 43.7181 268.057 43.8651V115.817C267.549 123.438 266.35 130.866 264.541 138.057C243.207 133.24 223.364 133.964 205.365 140.25C187.727 146.412 176.704 156.294 167.84 164.23C158.297 172.778 152.814 177.323 144.289 177.323C144.074 177.323 143.848 177.323 143.622 177.323C143.543 177.323 143.452 177.323 143.373 177.323C143.294 177.323 143.204 177.323 143.124 177.323C142.898 177.323 142.672 177.323 142.457 177.323C133.933 177.323 128.449 172.767 118.907 164.23C110.054 156.294 99.0192 146.423 81.3816 140.25C63.0317 133.851 42.7486 133.218 20.939 138.362C19.0848 131.081 17.8637 123.551 17.3436 115.829V43.8764C31.5893 43.7294 43.246 45.6401 51.4769 47.5283C58.9841 49.2581 65.2252 51.3384 69.7703 53.057C79.6971 56.788 87.747 61.0617 93.7619 64.7023C95.5143 62.5541 97.4138 59.9198 99.2341 56.7993C100.84 54.0293 102.083 51.4063 103.044 49.0659C88.2558 40.1227 72.2689 33.6217 55.4906 29.755C40.0803 26.1935 24.2517 24.9272 8.45698 25.9787L0 26.544V107.315C0 112.448 0.271372 117.525 0.802761 122.522C8.4231 194.067 69.1371 249.999 142.672 249.999C216.207 249.999 276.933 194.079 284.542 122.522C285.073 117.525 285.345 112.448 285.345 107.315V26.544L276.888 25.9787L276.944 25.9674ZM184.324 225.849C171.299 230.439 157.325 232.927 142.74 232.927C140.117 232.927 137.528 232.848 134.939 232.678C106.097 230.914 79.844 219.348 59.4816 201.281C53.8059 196.261 48.5938 190.721 43.9018 184.751C36.9937 175.955 31.2276 166.198 26.8295 155.74C44.5801 151.805 60.8836 152.382 75.4346 157.469C89.6351 162.421 98.3635 170.245 106.798 177.809C116.544 186.538 126.618 195.56 142.525 195.56C142.831 195.56 143.125 195.56 143.441 195.537C143.746 195.537 144.052 195.56 144.357 195.56C160.265 195.56 170.327 186.538 180.084 177.809C188.519 170.245 197.247 162.421 211.448 157.469C225.659 152.495 241.533 151.828 258.809 155.468C245.151 188.222 218.016 214.011 184.369 225.849H184.324Z" fill="#1B485F"/>
<path d="M258.762 155.472C245.105 188.226 217.97 214.015 184.323 225.853C171.298 230.443 157.324 232.93 142.739 232.93C140.116 232.93 137.527 232.851 134.937 232.681C106.096 230.918 79.8427 219.351 59.4803 201.284C53.8046 196.264 48.5925 190.724 43.9004 184.755C36.9924 175.958 31.2262 166.201 26.8281 155.743C44.5788 151.808 60.8822 152.385 75.4332 157.473C89.6338 162.425 98.3622 170.249 106.797 177.813C116.542 186.541 126.616 195.563 142.524 195.563C142.829 195.563 143.123 195.563 143.44 195.541C143.745 195.541 144.05 195.563 144.356 195.563C160.263 195.563 170.326 186.541 180.083 177.813C188.517 170.249 197.246 162.425 211.446 157.473C225.658 152.498 241.532 151.831 258.808 155.472H258.762Z" fill="#44AABF"/>
<path d="M112.785 98.7706C115.736 103.791 118.653 109.297 121.389 115.255C121.468 115.436 121.558 115.628 121.649 115.809C131.123 136.669 135.001 155.607 136.686 169.197H139.942V90.1892C133.113 88.889 127.946 82.8742 127.946 75.6721C127.946 67.5091 134.572 60.8837 142.735 60.8837C150.898 60.8837 157.523 67.5091 157.523 75.6721C157.523 82.8742 152.356 88.889 145.527 90.1892V169.197H148.784C150.457 155.607 154.346 136.669 163.832 115.809C163.9 115.628 164.002 115.436 164.081 115.255C166.817 109.285 169.723 103.791 172.673 98.7706C178.134 89.4996 183.753 81.8114 188.762 75.6835C182.612 66.4576 175.681 54.3939 169.745 39.5942C163.742 24.6361 160.406 11.0122 158.496 0H126.985C125.063 11.0122 121.728 24.6361 115.736 39.5942C109.8 54.3939 102.881 66.4576 96.7188 75.6835C101.727 81.8114 107.347 89.4996 112.796 98.7706H112.785Z" fill="#1B485F"/>
<path d="M828.402 180.254L811.608 208.39V224.119H799.2V208.202L782.469 180.254H795.566L805.968 197.675L816.371 180.254H828.402Z" fill="#1B485F"/>
<path d="M754.267 224.119H742.862L742.737 200.871L731.457 219.796H725.943L714.726 201.497V224.119H703.258V180.254H713.472L728.888 205.571L743.927 180.254H754.142L754.267 224.119Z" fill="#1B485F"/>
<path d="M648.368 214.532H671.304V224.119H636.086V180.254H670.489V189.842H648.368V197.236H667.857V206.511H648.368V214.532Z" fill="#1B485F"/>
<path d="M559.25 224.119V180.254H579.992C594.53 180.254 604.494 188.714 604.494 202.187C604.494 215.66 594.53 224.119 579.992 224.119H559.25ZM571.658 214.218H579.491C586.948 214.218 591.961 209.769 591.961 202.187C591.961 194.604 586.948 190.155 579.491 190.155H571.658V214.218Z" fill="#1B485F"/>
<path d="M517.757 224.119L514.31 215.597H495.761L492.315 224.119H479.656L499.02 180.254H511.239L530.666 224.119H517.757ZM499.396 206.448H510.675L505.036 192.411L499.396 206.448Z" fill="#1B485F"/>
<path d="M436.196 224.999C422.285 224.999 412.07 215.537 412.07 202.189C412.07 188.841 422.285 179.379 436.196 179.379C444.28 179.379 450.797 182.324 455.059 187.651L447.163 194.795C444.405 191.473 441.022 189.656 436.823 189.656C429.617 189.656 424.603 194.669 424.603 202.189C424.603 209.709 429.617 214.722 436.823 214.722C441.022 214.722 444.405 212.905 447.163 209.583L455.059 216.727C450.797 222.054 444.28 224.999 436.196 224.999Z" fill="#1B485F"/>
<path d="M373.444 224.119L369.997 215.597H351.449L348.002 224.119H335.344L354.707 180.254H366.927L386.353 224.119H373.444ZM355.083 206.448H366.363L360.723 192.411L355.083 206.448Z" fill="#1B485F"/>
<path d="M780.352 149.077C761.568 149.077 742.784 143.218 732.789 134.601L740.544 117.196C750.194 124.951 765.532 130.465 780.352 130.465C799.136 130.465 807.063 123.744 807.063 114.783C807.063 88.7616 735.374 105.822 735.374 61.0167C735.374 41.5436 750.884 25 783.971 25C798.446 25 813.611 28.7912 824.123 35.6844L817.058 53.0896C806.201 46.7134 794.31 43.6115 783.798 43.6115C765.187 43.6115 757.604 50.8493 757.604 59.9827C757.604 85.6597 829.121 68.9438 829.121 113.232C829.121 132.533 813.439 149.077 780.352 149.077Z" fill="#1B485F"/>
<path d="M687.93 147.357V26.7266H710.332V147.357H687.93Z" fill="#1B485F"/>
<path d="M608.738 147.357V45.6827H568.758V26.7266H671.121V45.6827H631.141V147.357H608.738Z" fill="#1B485F"/>
<path d="M562.959 147.357H538.833L514.19 112.029C512.639 112.202 511.088 112.202 509.537 112.202H482.309V147.357H459.906V26.7266H509.537C541.245 26.7266 560.891 42.9255 560.891 69.6364C560.891 87.9033 551.585 101.345 535.214 107.721L562.959 147.357ZM538.316 69.6364C538.316 54.4715 528.148 45.6827 508.503 45.6827H482.309V93.7625H508.503C528.148 93.7625 538.316 84.8014 538.316 69.6364Z" fill="#1B485F"/>
<path d="M366.856 128.573H434.926V147.357H344.453V26.7266H432.513V45.5104H366.856V76.8742H425.103V95.3134H366.856V128.573Z" fill="#1B485F"/>
</svg>
