<svg width="900" height="788" viewBox="0 0 900 788" fill="none" xmlns="http://www.w3.org/2000/svg">
<path d="M872.925 81.8511C823.141 78.5369 773.249 82.5282 724.676 93.7539C671.826 105.942 621.4 126.397 574.823 154.622C577.852 161.999 581.736 170.266 586.832 178.997C592.57 188.833 598.521 197.137 604.045 203.908C623.004 192.433 648.413 178.962 679.667 167.202C694.028 161.785 713.664 155.228 737.327 149.775C763.271 143.788 800.012 137.801 844.915 138.264V365.058C843.311 389.077 839.534 412.491 833.832 435.156C766.585 419.974 704.042 422.255 647.308 442.069C591.715 461.491 556.969 492.638 529.03 517.655C498.952 544.597 481.668 558.923 454.798 558.923C454.121 558.923 453.408 558.923 452.695 558.923C452.446 558.923 452.161 558.923 451.911 558.923C451.662 558.923 451.377 558.923 451.127 558.923C450.414 558.923 449.702 558.923 449.025 558.923C422.155 558.923 404.871 544.561 374.793 517.655C346.889 492.638 312.108 461.527 256.514 442.069C198.676 421.899 134.743 419.903 65.9996 436.118C60.1551 413.168 56.3062 389.433 54.6669 365.093V138.3C99.5693 137.837 136.311 143.859 162.255 149.811C185.918 155.263 205.589 161.82 219.915 167.237C251.204 178.997 276.578 192.468 295.537 203.943C301.06 197.172 307.047 188.869 312.785 179.033C317.845 170.302 321.765 162.034 324.795 154.657C278.182 126.469 227.791 105.977 174.906 93.7895C126.333 82.5639 76.441 78.5725 26.6563 81.8868L0 83.6686V338.259C0 354.438 0.855363 370.439 2.5303 386.191C26.5496 611.701 217.92 787.997 449.702 787.997C681.484 787.997 872.89 611.737 896.873 386.191C898.548 370.439 899.404 354.438 899.404 338.259V83.6686L872.747 81.8868L872.925 81.8511ZM580.988 711.876C539.934 726.345 495.887 734.185 449.916 734.185C441.648 734.185 433.487 733.936 425.326 733.401C334.416 727.842 251.668 691.385 187.486 634.437C169.596 618.615 153.167 601.152 138.378 582.336C116.604 554.611 98.429 523.856 84.5663 490.892C140.516 478.49 191.905 480.308 237.769 496.344C282.529 511.953 310.041 536.614 336.626 560.455C367.345 587.967 399.097 616.405 449.239 616.405C450.201 616.405 451.127 616.405 452.125 616.334C453.087 616.334 454.049 616.405 455.012 616.405C505.153 616.405 536.87 587.967 567.624 560.455C594.209 536.614 621.721 511.953 666.481 496.344C711.277 480.664 761.311 478.561 815.764 490.037C772.714 593.277 687.186 674.565 581.131 711.876H580.988Z" fill="#1B485F"/>
<path d="M815.594 490.035C772.545 593.275 687.016 674.563 580.961 711.875C539.907 726.344 495.86 734.184 449.888 734.184C441.621 734.184 433.46 733.934 425.299 733.4C334.389 727.841 251.64 691.384 187.458 634.436C169.569 618.613 153.14 601.151 138.351 582.335C116.577 554.609 98.4018 523.855 84.5391 490.891C140.489 478.489 191.877 480.306 237.742 496.343C282.502 511.952 310.014 536.613 336.599 560.454C367.318 587.966 399.07 616.404 449.211 616.404C450.174 616.404 451.1 616.404 452.098 616.333C453.06 616.333 454.022 616.404 454.984 616.404C505.126 616.404 536.842 587.966 567.597 560.454C594.182 536.613 621.694 511.952 666.454 496.343C711.249 480.663 761.283 478.56 815.737 490.035H815.594Z" fill="#44AABF"/>
<path d="M355.499 311.324C364.801 327.147 373.995 344.502 382.619 363.283C382.869 363.853 383.154 364.459 383.439 365.029C413.302 430.779 425.526 490.471 430.836 533.307H441.099V284.276C419.574 280.178 403.288 261.219 403.288 238.518C403.288 212.788 424.172 191.905 449.902 191.905C475.631 191.905 496.515 212.788 496.515 238.518C496.515 261.219 480.228 280.178 458.704 284.276V533.307H468.967C474.241 490.471 486.501 430.779 516.4 365.029C516.614 364.459 516.935 363.853 517.184 363.283C525.808 344.467 534.967 327.147 544.268 311.324C561.481 282.102 579.192 257.869 594.979 238.554C575.593 209.474 553.747 171.449 535.038 124.801C516.115 77.6529 505.602 34.7104 499.579 0H400.259C394.201 34.7104 383.688 77.6529 364.801 124.801C346.091 171.449 324.281 209.474 304.859 238.554C320.647 257.869 338.358 282.102 355.535 311.324H355.499Z" fill="#1B485F"/>
</svg>
