<svg width="830" height="250" viewBox="0 0 830 250" fill="none" xmlns="http://www.w3.org/2000/svg">
<path d="M276.944 25.9674C261.149 24.9159 245.321 26.1822 229.91 29.7437C213.143 33.6104 197.145 40.1001 182.368 49.0546C183.329 51.395 184.562 54.018 186.178 56.788C187.999 59.9085 189.887 62.5428 191.639 64.691C197.654 61.0504 205.715 56.7767 215.631 53.0456C220.187 51.3271 226.417 49.2468 233.924 47.5169C242.155 45.6175 253.812 43.7181 268.057 43.8651V115.817C267.549 123.438 266.35 130.866 264.541 138.057C243.207 133.24 223.364 133.964 205.365 140.25C187.727 146.412 176.704 156.294 167.84 164.23C158.297 172.778 152.814 177.323 144.289 177.323C144.074 177.323 143.848 177.323 143.622 177.323C143.543 177.323 143.452 177.323 143.373 177.323C143.294 177.323 143.204 177.323 143.124 177.323C142.898 177.323 142.672 177.323 142.457 177.323C133.933 177.323 128.449 172.767 118.907 164.23C110.054 156.294 99.0192 146.423 81.3816 140.25C63.0318 133.851 42.7486 133.218 20.939 138.362C19.0848 131.081 17.8637 123.551 17.3436 115.829V43.8764C31.5893 43.7294 43.246 45.6401 51.4769 47.5283C58.9841 49.2581 65.2252 51.3384 69.7703 53.057C79.6971 56.788 87.747 61.0617 93.7619 64.7023C95.5143 62.5541 97.4138 59.9198 99.2341 56.7993C100.84 54.0293 102.083 51.4063 103.044 49.0659C88.2558 40.1227 72.2689 33.6217 55.4906 29.755C40.0803 26.1935 24.2517 24.9272 8.45698 25.9787L0 26.544V107.315C0 112.448 0.271372 117.525 0.802761 122.522C8.4231 194.067 69.1371 249.999 142.672 249.999C216.207 249.999 276.933 194.079 284.542 122.522C285.073 117.525 285.345 112.448 285.345 107.315V26.544L276.888 25.9787L276.944 25.9674ZM184.324 225.849C171.299 230.439 157.325 232.927 142.74 232.927C140.117 232.927 137.528 232.848 134.939 232.678C106.097 230.914 79.844 219.348 59.4816 201.281C53.8059 196.261 48.5938 190.721 43.9018 184.751C36.9937 175.955 31.2276 166.198 26.8295 155.74C44.5801 151.805 60.8836 152.382 75.4346 157.469C89.6351 162.421 98.3635 170.245 106.798 177.809C116.544 186.537 126.618 195.56 142.525 195.56C142.831 195.56 143.125 195.56 143.441 195.537C143.746 195.537 144.052 195.56 144.357 195.56C160.265 195.56 170.327 186.537 180.084 177.809C188.519 170.245 197.247 162.421 211.448 157.469C225.659 152.495 241.533 151.828 258.809 155.468C245.151 188.222 218.016 214.011 184.369 225.849H184.324Z" fill="#FFFFFF"/>
<path d="M258.762 155.472C245.105 188.226 217.97 214.015 184.323 225.853C171.298 230.443 157.324 232.93 142.739 232.93C140.116 232.93 137.527 232.851 134.937 232.681C106.096 230.918 79.8427 219.351 59.4803 201.284C53.8046 196.264 48.5925 190.724 43.9004 184.755C36.9924 175.958 31.2262 166.201 26.8281 155.743C44.5788 151.808 60.8822 152.385 75.4332 157.473C89.6338 162.425 98.3622 170.249 106.797 177.813C116.542 186.541 126.616 195.563 142.524 195.563C142.829 195.563 143.123 195.563 143.44 195.541C143.745 195.541 144.05 195.563 144.356 195.563C160.263 195.563 170.326 186.541 180.083 177.813C188.517 170.249 197.246 162.425 211.446 157.473C225.658 152.498 241.532 151.831 258.808 155.472H258.762Z" fill="#44AABF"/>
<path d="M112.785 98.7706C115.736 103.791 118.653 109.297 121.389 115.255C121.468 115.436 121.558 115.628 121.649 115.809C131.123 136.669 135.001 155.607 136.686 169.197H139.942V90.1892C133.113 88.889 127.946 82.8742 127.946 75.6721C127.946 67.5091 134.572 60.8837 142.735 60.8837C150.898 60.8837 157.523 67.5091 157.523 75.6721C157.523 82.8742 152.356 88.889 145.527 90.1892V169.197H148.784C150.457 155.607 154.346 136.669 163.832 115.809C163.9 115.628 164.002 115.436 164.081 115.255C166.817 109.285 169.723 103.791 172.673 98.7706C178.134 89.4996 183.753 81.8114 188.762 75.6835C182.612 66.4576 175.681 54.3939 169.745 39.5942C163.742 24.6361 160.406 11.0122 158.496 0H126.985C125.063 11.0122 121.728 24.6361 115.736 39.5942C109.8 54.3939 102.881 66.4576 96.7188 75.6835C101.727 81.8114 107.347 89.4996 112.796 98.7706H112.785Z" fill="#FFFFFF"/>
<path d="M779.086 224.002V180.602H789.192L807.172 210.114H801.84L819.324 180.602H829.43L829.554 224.002H818.27L818.146 197.776H820.068L806.986 219.724H801.53L788.076 197.776H790.432V224.002H779.086Z" fill="#FFFFFF"/>
<path d="M739.548 224.866C736.076 224.866 732.872 224.308 729.938 223.192C727.003 222.076 724.44 220.506 722.25 218.48C720.1 216.414 718.426 214.016 717.228 211.288C716.029 208.56 715.43 205.564 715.43 202.298C715.43 199.033 716.029 196.036 717.228 193.308C718.426 190.58 720.1 188.204 722.25 186.178C724.44 184.112 727.003 182.52 729.938 181.404C732.872 180.288 736.076 179.73 739.548 179.73C743.061 179.73 746.264 180.288 749.158 181.404C752.092 182.52 754.634 184.112 756.784 186.178C758.933 188.204 760.607 190.58 761.806 193.308C763.046 196.036 763.666 199.033 763.666 202.298C763.666 205.564 763.046 208.581 761.806 211.35C760.607 214.078 758.933 216.455 756.784 218.48C754.634 220.506 752.092 222.076 749.158 223.192C746.264 224.308 743.061 224.866 739.548 224.866ZM739.548 214.698C741.201 214.698 742.73 214.409 744.136 213.83C745.582 213.252 746.822 212.425 747.856 211.35C748.93 210.234 749.757 208.912 750.336 207.382C750.956 205.853 751.266 204.158 751.266 202.298C751.266 200.397 750.956 198.702 750.336 197.214C749.757 195.685 748.93 194.383 747.856 193.308C746.822 192.192 745.582 191.345 744.136 190.766C742.73 190.188 741.201 189.898 739.548 189.898C737.894 189.898 736.344 190.188 734.898 190.766C733.492 191.345 732.252 192.192 731.178 193.308C730.144 194.383 729.318 195.685 728.698 197.214C728.119 198.702 727.83 200.397 727.83 202.298C727.83 204.158 728.119 205.853 728.698 207.382C729.318 208.912 730.144 210.234 731.178 211.35C732.252 212.425 733.492 213.252 734.898 213.83C736.344 214.409 737.894 214.698 739.548 214.698Z" fill="#FFFFFF"/>
<path d="M678.126 224.866C674.654 224.866 671.45 224.308 668.516 223.192C665.581 222.076 663.018 220.506 660.828 218.48C658.678 216.414 657.004 214.016 655.806 211.288C654.607 208.56 654.008 205.564 654.008 202.298C654.008 199.033 654.607 196.036 655.806 193.308C657.004 190.58 658.678 188.204 660.828 186.178C663.018 184.112 665.581 182.52 668.516 181.404C671.45 180.288 674.654 179.73 678.126 179.73C681.639 179.73 684.842 180.288 687.736 181.404C690.67 182.52 693.212 184.112 695.362 186.178C697.511 188.204 699.185 190.58 700.384 193.308C701.624 196.036 702.244 199.033 702.244 202.298C702.244 205.564 701.624 208.581 700.384 211.35C699.185 214.078 697.511 216.455 695.362 218.48C693.212 220.506 690.67 222.076 687.736 223.192C684.842 224.308 681.639 224.866 678.126 224.866ZM678.126 214.698C679.779 214.698 681.308 214.409 682.714 213.83C684.16 213.252 685.4 212.425 686.434 211.35C687.508 210.234 688.335 208.912 688.914 207.382C689.534 205.853 689.844 204.158 689.844 202.298C689.844 200.397 689.534 198.702 688.914 197.214C688.335 195.685 687.508 194.383 686.434 193.308C685.4 192.192 684.16 191.345 682.714 190.766C681.308 190.188 679.779 189.898 678.126 189.898C676.472 189.898 674.922 190.188 673.476 190.766C672.07 191.345 670.83 192.192 669.756 193.308C668.722 194.383 667.896 195.685 667.276 197.214C666.697 198.702 666.408 200.397 666.408 202.298C666.408 204.158 666.697 205.853 667.276 207.382C667.896 208.912 668.722 210.234 669.756 211.35C670.83 212.425 672.07 213.252 673.476 213.83C674.922 214.409 676.472 214.698 678.126 214.698Z" fill="#FFFFFF"/>
<path d="M601.352 224.002V180.602H621.192C625.16 180.602 628.57 181.242 631.422 182.524C634.315 183.805 636.547 185.665 638.118 188.104C639.688 190.501 640.474 193.353 640.474 196.66C640.474 199.925 639.688 202.756 638.118 205.154C636.547 207.51 634.315 209.328 631.422 210.61C628.57 211.85 625.16 212.47 621.192 212.47H608.172L613.628 207.324V224.002H601.352ZM628.198 224.002L617.41 208.192H630.492L641.342 224.002H628.198ZM613.628 208.626L608.172 202.984H620.448C623.01 202.984 624.912 202.426 626.152 201.31C627.433 200.194 628.074 198.644 628.074 196.66C628.074 194.634 627.433 193.064 626.152 191.948C624.912 190.832 623.01 190.274 620.448 190.274H608.172L613.628 184.632V208.626Z" fill="#FFFFFF"/>
<path d="M567.477 224.866C563.923 224.866 560.492 224.432 557.186 223.564C553.92 222.655 551.254 221.498 549.188 220.092L553.217 211.04C555.16 212.28 557.392 213.314 559.913 214.14C562.476 214.926 565.018 215.318 567.54 215.318C569.234 215.318 570.598 215.174 571.632 214.884C572.665 214.554 573.409 214.14 573.863 213.644C574.359 213.107 574.607 212.487 574.607 211.784C574.607 210.792 574.153 210.007 573.243 209.428C572.334 208.85 571.156 208.374 569.71 208.002C568.263 207.63 566.651 207.258 564.874 206.886C563.138 206.514 561.381 206.039 559.604 205.46C557.867 204.882 556.276 204.138 554.829 203.228C553.383 202.278 552.205 201.058 551.296 199.57C550.386 198.041 549.932 196.119 549.932 193.804C549.932 191.2 550.634 188.844 552.04 186.736C553.486 184.628 555.636 182.934 558.488 181.652C561.34 180.371 564.894 179.73 569.152 179.73C572.004 179.73 574.794 180.061 577.521 180.722C580.291 181.342 582.75 182.272 584.9 183.512L581.117 192.626C579.051 191.51 577.005 190.684 574.979 190.146C572.954 189.568 570.991 189.278 569.089 189.278C567.395 189.278 566.031 189.464 564.997 189.836C563.964 190.167 563.22 190.622 562.766 191.2C562.311 191.779 562.083 192.44 562.083 193.184C562.083 194.135 562.517 194.9 563.385 195.478C564.295 196.016 565.473 196.47 566.919 196.842C568.407 197.173 570.019 197.524 571.755 197.896C573.533 198.268 575.289 198.744 577.025 199.322C578.803 199.86 580.415 200.604 581.861 201.554C583.308 202.464 584.465 203.683 585.333 205.212C586.243 206.7 586.697 208.581 586.697 210.854C586.697 213.376 585.974 215.711 584.527 217.86C583.122 219.968 580.993 221.663 578.141 222.944C575.331 224.226 571.776 224.866 567.477 224.866Z" fill="#FFFFFF"/>
<path d="M518.345 224.866C514.79 224.866 511.359 224.432 508.053 223.564C504.787 222.655 502.121 221.498 500.055 220.092L504.085 211.04C506.027 212.28 508.259 213.314 510.781 214.14C513.343 214.926 515.885 215.318 518.407 215.318C520.101 215.318 521.465 215.174 522.499 214.884C523.532 214.554 524.276 214.14 524.731 213.644C525.227 213.107 525.475 212.487 525.475 211.784C525.475 210.792 525.02 210.007 524.111 209.428C523.201 208.85 522.023 208.374 520.577 208.002C519.13 207.63 517.518 207.258 515.741 206.886C514.005 206.514 512.248 206.039 510.471 205.46C508.735 204.882 507.143 204.138 505.697 203.228C504.25 202.278 503.072 201.058 502.163 199.57C501.253 198.041 500.799 196.119 500.799 193.804C500.799 191.2 501.501 188.844 502.907 186.736C504.353 184.628 506.503 182.934 509.355 181.652C512.207 180.371 515.761 179.73 520.019 179.73C522.871 179.73 525.661 180.061 528.389 180.722C531.158 181.342 533.617 182.272 535.767 183.512L531.985 192.626C529.918 191.51 527.872 190.684 525.847 190.146C523.821 189.568 521.858 189.278 519.957 189.278C518.262 189.278 516.898 189.464 515.865 189.836C514.831 190.167 514.087 190.622 513.633 191.2C513.178 191.779 512.951 192.44 512.951 193.184C512.951 194.135 513.385 194.9 514.253 195.478C515.162 196.016 516.34 196.47 517.787 196.842C519.275 197.173 520.887 197.524 522.623 197.896C524.4 198.268 526.157 198.744 527.893 199.322C529.67 199.86 531.282 200.604 532.729 201.554C534.175 202.464 535.333 203.683 536.201 205.212C537.11 206.7 537.565 208.581 537.565 210.854C537.565 213.376 536.841 215.711 535.395 217.86C533.989 219.968 531.861 221.663 529.009 222.944C526.198 224.226 522.643 224.866 518.345 224.866Z" fill="#FFFFFF"/>
<path d="M440.148 224.002L459.306 180.602H471.396L490.616 224.002H477.844L462.84 186.616H467.676L452.672 224.002H440.148ZM450.626 215.57L453.788 206.518H474.992L478.154 215.57H450.626Z" fill="#FFFFFF"/>
<path d="M398.102 224.002V180.602H410.378V214.268H431.086V224.002H398.102Z" fill="#FFFFFF"/>
<path d="M364.979 224.866C361.549 224.866 358.366 224.329 355.431 223.254C352.538 222.138 350.017 220.568 347.867 218.542C345.759 216.517 344.106 214.14 342.907 211.412C341.709 208.643 341.109 205.605 341.109 202.298C341.109 198.992 341.709 195.974 342.907 193.246C344.106 190.477 345.759 188.08 347.867 186.054C350.017 184.029 352.538 182.479 355.431 181.404C358.366 180.288 361.549 179.73 364.979 179.73C368.989 179.73 372.564 180.433 375.705 181.838C378.888 183.244 381.533 185.269 383.641 187.914L375.829 194.982C374.424 193.329 372.874 192.068 371.179 191.2C369.526 190.332 367.666 189.898 365.599 189.898C363.822 189.898 362.189 190.188 360.701 190.766C359.213 191.345 357.932 192.192 356.857 193.308C355.824 194.383 354.997 195.685 354.377 197.214C353.799 198.744 353.509 200.438 353.509 202.298C353.509 204.158 353.799 205.853 354.377 207.382C354.997 208.912 355.824 210.234 356.857 211.35C357.932 212.425 359.213 213.252 360.701 213.83C362.189 214.409 363.822 214.698 365.599 214.698C367.666 214.698 369.526 214.264 371.179 213.396C372.874 212.528 374.424 211.268 375.829 209.614L383.641 216.682C381.533 219.286 378.888 221.312 375.705 222.758C372.564 224.164 368.989 224.866 364.979 224.866Z" fill="#FFFFFF"/>
<path d="M780.352 149.077C761.568 149.077 742.784 143.218 732.789 134.601L740.544 117.196C750.194 124.951 765.532 130.465 780.352 130.465C799.136 130.465 807.063 123.744 807.063 114.783C807.063 88.7616 735.374 105.822 735.374 61.0167C735.374 41.5436 750.884 25 783.971 25C798.446 25 813.611 28.7912 824.123 35.6844L817.058 53.0896C806.201 46.7134 794.31 43.6115 783.798 43.6115C765.187 43.6115 757.604 50.8493 757.604 59.9827C757.604 85.6597 829.121 68.9438 829.121 113.232C829.121 132.533 813.439 149.077 780.352 149.077Z" fill="#FFFFFF"/>
<path d="M687.93 147.357V26.7266H710.332V147.357H687.93Z" fill="#FFFFFF"/>
<path d="M608.738 147.357V45.6827H568.758V26.7266H671.121V45.6827H631.141V147.357H608.738Z" fill="#FFFFFF"/>
<path d="M562.959 147.357H538.833L514.19 112.029C512.639 112.202 511.088 112.202 509.537 112.202H482.309V147.357H459.906V26.7266H509.537C541.245 26.7266 560.891 42.9255 560.891 69.6364C560.891 87.9033 551.585 101.345 535.214 107.721L562.959 147.357ZM538.316 69.6364C538.316 54.4715 528.148 45.6827 508.503 45.6827H482.309V93.7625H508.503C528.148 93.7625 538.316 84.8014 538.316 69.6364Z" fill="#FFFFFF"/>
<path d="M366.856 128.573H434.926V147.357H344.453V26.7266H432.513V45.5104H366.856V76.8742H425.103V95.3134H366.856V128.573Z" fill="#FFFFFF"/>
</svg>
